<?xml version="1.0" encoding="UTF-8" standalone="no"?>
<svg
   xmlns:dc="http://purl.org/dc/elements/1.1/"
   xmlns:cc="http://creativecommons.org/ns#"
   xmlns:rdf="http://www.w3.org/1999/02/22-rdf-syntax-ns#"
   xmlns:svg="http://www.w3.org/2000/svg"
   xmlns="http://www.w3.org/2000/svg"
   xmlns:sodipodi="http://sodipodi.sourceforge.net/DTD/sodipodi-0.dtd"
   xmlns:inkscape="http://www.inkscape.org/namespaces/inkscape"
   version="1.1"
   width="131.74789"
   height="136.7533"
   id="svg4"
   viewBox="0 0 131.74789 136.7533"
   sodipodi:docname="binder.svg"
   inkscape:version="1.0.1 (3bc2e813f5, 2020-09-07)">
  <style
     id="style13"></style>
  <metadata
     id="metadata10">
    <rdf:RDF>
      <cc:Work
         rdf:about="">
        <dc:format>image/svg+xml</dc:format>
        <dc:type
           rdf:resource="http://purl.org/dc/dcmitype/StillImage" />
        <dc:title></dc:title>
      </cc:Work>
    </rdf:RDF>
  </metadata>
  <defs
     id="defs8" />
  <sodipodi:namedview
     pagecolor="#ffffff"
     bordercolor="#666666"
     borderopacity="1"
     objecttolerance="10"
     gridtolerance="10"
     guidetolerance="10"
     inkscape:pageopacity="0"
     inkscape:pageshadow="2"
     inkscape:window-width="1350"
     inkscape:window-height="729"
     id="namedview6"
     showgrid="false"
     inkscape:zoom="1.9027778"
     inkscape:cx="-32.388251"
     inkscape:cy="120.8487"
     inkscape:window-x="0"
     inkscape:window-y="0"
     inkscape:window-maximized="0"
     inkscape:current-layer="svg4"
     inkscape:document-rotation="0"
     fit-margin-top="1"
     lock-margins="true"
     fit-margin-left="1"
     fit-margin-right="1"
     fit-margin-bottom="1" />
  <path
     d="m 57.97549,135.29231 c -7.34668,-11.64416 -3.56246,-28.06567 5.57068,-30.25808 l 6.5333,0.1533 c 0.68405,-0.5637 1.98695,-2.22743 3.78736,-0.19397 l 0.97393,0.26774 c 2.92599,-1.55855 3.04515,-2.31185 3.23579,-5.14696 -3.76347,-16.311733 0.0421,-32.031569 -3.67491,-33.356025 l -7.22018,-0.07314 2.4549,-1.829071 C 68.36081,64.68545 66.34587,64.552163 65.88359,64.118662 65.48387,60.618079 66.52865,58.442377 64.94319,53.955132 62.23677,53.797573 62.16414,53.631923 59.16699,50.443371 49.08633,49.536766 44.25377,48.855216 32.69444,43.443056 31.55807,42.58308 30.79144,42.7746 29.95071,43.11612 l -18.66998,0.167034 c 0.39814,-7.218769 6.94653,-7.040769 11.2249,-7.693469 l -0.59486,-1.241737 c -1.86539,-4.29498 -0.5149,-10.354518 0.87258,-16.564375 0.2269,-2.144403 0.13971,-2.120769 -0.86242,-2.190713 L 11.32496,14.744808 C 5.96042,16.70674 5.45684,20.368716 1,19.721765 6.82263,-1.0313441 16.69128,2.5379059 34.69953,2.4400699 L 49.56968,1 114.61686,6.7046025 c 22.666,2.4711252 22.09273,37.1391645 -5.83835,51.4119035 l -12.70754,0.292656 c -1.93078,0.280945 -2.71544,1.087691 -2.72403,4.297429 l 3.03173,34.481088 c 0.22857,2.59951 -0.44552,3.182701 1.9399,3.043241 2.59439,-0.1516 5.33058,-0.545291 5.04489,2.36775 0.0637,1.75316 -0.46187,10.89149 1.11887,10.05983 3.07177,31.54698 -9.49984,21.04715 -46.50684,22.63381 z"
     style="fill:#242323;fill-rule:evenodd;stroke-width:1.05628"
     id="path2" />
  <g
     inkscape:groupmode="layer"
     id="layer3"
     inkscape:label="Layer 1"
     transform="translate(-117.56887,-3.0855613)" />
</svg>
