<?xml version="1.0" encoding="UTF-8" standalone="no"?>
<svg
   xmlns:dc="http://purl.org/dc/elements/1.1/"
   xmlns:cc="http://creativecommons.org/ns#"
   xmlns:rdf="http://www.w3.org/1999/02/22-rdf-syntax-ns#"
   xmlns:svg="http://www.w3.org/2000/svg"
   xmlns="http://www.w3.org/2000/svg"
   xmlns:sodipodi="http://sodipodi.sourceforge.net/DTD/sodipodi-0.dtd"
   xmlns:inkscape="http://www.inkscape.org/namespaces/inkscape"
   xml:space="preserve"
   width="52.418697mm"
   height="73.776665mm"
   version="1.1"
   style="clip-rule:evenodd;fill-rule:evenodd;image-rendering:optimizeQuality;shape-rendering:geometricPrecision;text-rendering:geometricPrecision"
   viewBox="0 0 5241.8695 7377.6662"
   id="svg42"
   sodipodi:docname="repair.svg"
   inkscape:version="1.0.1 (3bc2e813f5, 2020-09-07)"><style
   id="style879"></style><metadata
   id="metadata46"><rdf:RDF><cc:Work
       rdf:about=""><dc:format>image/svg+xml</dc:format><dc:type
         rdf:resource="http://purl.org/dc/dcmitype/StillImage" /><dc:title></dc:title></cc:Work></rdf:RDF></metadata><sodipodi:namedview
   pagecolor="#ffffff"
   bordercolor="#666666"
   borderopacity="1"
   objecttolerance="10"
   gridtolerance="10"
   guidetolerance="10"
   inkscape:pageopacity="0"
   inkscape:pageshadow="2"
   inkscape:window-width="1366"
   inkscape:window-height="715"
   id="namedview44"
   showgrid="false"
   lock-margins="true"
   fit-margin-top="1"
   fit-margin-left="1"
   fit-margin-right="1"
   fit-margin-bottom="1"
   inkscape:zoom="1.9352565"
   inkscape:cx="99.058957"
   inkscape:cy="98.082274"
   inkscape:window-x="-8"
   inkscape:window-y="-8"
   inkscape:window-maximized="1"
   inkscape:current-layer="Warstwa_x0020_symetrii" />
 <defs
   id="defs4">
  <style
   type="text/css"
   id="style2">
   <![CDATA[
    .str0 {stroke:black;stroke-width:20;stroke-miterlimit:22.9256}
    .str1 {stroke:black;stroke-width:20;stroke-miterlimit:22.9256}
    .fil1 {fill:none}
    .fil0 {fill:black}
   ]]>
  </style>
 </defs>
 <g
   id="Warstwa_x0020_symetrii"
   style="fill:#242323;fill-opacity:1;stroke:#d40000"
   transform="translate(-1391.669,-310.14691)">
  <metadata
   id="CorelCorpID_0Corel-Layer" />
  <path
   class="fil0 str0"
   d="m 4012.5939,3998.9799 375.9,-230.86 c 59.17,107.22 1117.91,1845.91 1260.27,1864.23 142.36,18.33 584.11,173.32 690.58,352.78 106.48,179.46 183.44,565.88 184.19,700.38 0.79,134.54 -97.95,481.8 -222.56,394.51 -124.6,-87.29 -158.62,-504.53 -250.16,-684.46 -91.53,-179.9 -605.95,31 -605.95,31 z"
   id="path7"
   style="fill:#242323;fill-opacity:1;stroke:#242323;stroke-opacity:1" />
  <path
   class="fil0 str0"
   d="m 4012.6039,3998.9699 -383.84,217.39 c 65.23,103.64 1075.12,1871.15 1022.32,2004.61 -52.8,133.48 -130.76,595.09 -25.16,775.07 105.59,179.98 406.61,434.21 523.97,499.91 117.38,65.75 469.09,147.25 452.94,-4.03 -16.15,-151.28 -364.91,-382.82 -478.13,-549.96 -113.21,-167.11 320.15,-515.4 320.15,-515.4 z"
   id="path9"
   style="fill:#242323;fill-opacity:1;stroke:#242323;stroke-opacity:1" />
  <path
   class="fil0 str0"
   d="m 4012.6139,3998.9799 -375.9,230.86 c -59.17,-107.22 -1117.91,-1845.91 -1260.27,-1864.23 -142.36,-18.33 -584.11,-173.32 -690.58,-352.78 -106.48,-179.4599 -183.44,-565.8799 -184.19,-700.3799 -0.79,-134.54 97.95,-481.80001 222.56,-394.51001 124.6,87.29001 158.62,504.53001 250.16,684.46001 91.53,179.9 605.95,-31 605.95,-31 z"
   id="path11"
   style="fill:#242323;fill-opacity:1;stroke:#242323;stroke-opacity:1" />
  <path
   class="fil0 str0"
   d="m 4012.6039,3998.9899 383.84,-217.39 c -65.23,-103.64 -1075.12,-1871.15 -1022.32,-2004.6099 52.8,-133.48 130.76,-595.09 25.16,-775.07 -105.59,-179.98001 -406.61,-434.21 -523.97,-499.91 -117.38,-65.75 -469.09,-147.25 -452.94,4.03 16.15,151.28 364.91,382.81999 478.13,549.96 113.21,167.11 -320.15,515.4 -320.15,515.4 z"
   id="path13"
   style="fill:#242323;fill-opacity:1;stroke:#242323;stroke-opacity:1" />
  <g
   id="_2522432216592"
   style="fill:#242323;fill-opacity:1;stroke:#242323;stroke-opacity:1"
   transform="translate(-849.75605)">
   <path
   id="line15"
   style="fill:#242323;fill-opacity:1;stroke:#242323;stroke-width:20;stroke-miterlimit:22.9256;stroke-opacity:1"
   d="m 3802.4399,1944.16 v 0"
   class="fil1 str1" />
  </g>
  <g
   id="_2522432216016"
   style="fill:#242323;fill-opacity:1;stroke:#242323;stroke-opacity:1"
   transform="translate(-849.75605)">
   <path
   id="line18"
   style="fill:#242323;fill-opacity:1;stroke:#242323;stroke-width:20;stroke-miterlimit:22.9256;stroke-opacity:1"
   d="m 3802.4399,1944.16 v 0"
   class="fil1 str1" />
  </g>
  <g
   id="_2522432212656"
   style="fill:#242323;fill-opacity:1;stroke:#242323;stroke-opacity:1"
   transform="translate(-849.75605)">
   <path
   id="line21"
   style="fill:#242323;fill-opacity:1;stroke:#242323;stroke-width:20;stroke-miterlimit:22.9256;stroke-opacity:1"
   d="m 3802.4399,1944.16 v 0"
   class="fil1 str1" />
  </g>
  <g
   id="_2522432215008"
   style="fill:#242323;fill-opacity:1;stroke:#242323;stroke-opacity:1"
   transform="translate(-849.75605)">
   <path
   id="line24"
   style="fill:#242323;fill-opacity:1;stroke:#242323;stroke-width:20;stroke-miterlimit:22.9256;stroke-opacity:1"
   d="m 3802.4399,1944.16 v 0"
   class="fil1 str1" />
  </g>
  <g
   id="_2522432214096"
   style="fill:#242323;fill-opacity:1;stroke:#242323;stroke-opacity:1"
   transform="translate(-849.75605)">
   <path
   id="line27"
   style="fill:#242323;fill-opacity:1;stroke:#242323;stroke-width:20;stroke-miterlimit:22.9256;stroke-opacity:1"
   d="m 3802.4399,1944.16 v 0"
   class="fil1 str1" />
  </g>
  <g
   id="_2522432214288"
   style="fill:#242323;fill-opacity:1;stroke:#242323;stroke-opacity:1"
   transform="translate(-849.75605)">
   <path
   id="line30"
   style="fill:#242323;fill-opacity:1;stroke:#242323;stroke-width:20;stroke-miterlimit:22.9256;stroke-opacity:1"
   d="m 3802.4399,1944.16 v 0"
   class="fil1 str1" />
  </g>
  <g
   id="_2522432212416"
   style="fill:#242323;fill-opacity:1;stroke:#242323;stroke-opacity:1"
   transform="translate(-849.75605)">
   <path
   id="line33"
   style="fill:#242323;fill-opacity:1;stroke:#242323;stroke-width:20;stroke-miterlimit:22.9256;stroke-opacity:1"
   d="m 3802.4399,1944.16 v 0"
   class="fil1 str1" />
  </g>
  <g
   id="_2522432210400"
   style="fill:#242323;fill-opacity:1;stroke:#242323;stroke-opacity:1"
   transform="translate(-849.75605)">
   <path
   id="line36"
   style="fill:#242323;fill-opacity:1;stroke:#242323;stroke-width:20;stroke-miterlimit:22.9256;stroke-opacity:1"
   d="m 3802.4399,1944.16 v 0"
   class="fil1 str1" />
  </g>
 </g>
 <g
   id="CorelDrawSymmetryLinesLayer"
   transform="translate(-1391.669,-310.14691)">
  <metadata
   id="CorelCorpID_1Corel-Layer" />
 </g>
</svg>
